Normalized EMG Linear Envelopes
nRows=142
nColumns=4

endheader
time	 med_gas_r	  soleus_r	 tib_ant_r	
0	 -0.020762	 -0.504329	 -0.313577	
0.0332661	  0.010233	 -0.235400	 -0.200188	
0.0665323	  0.037345	 -0.002499	 -0.104370	
0.0997984	  0.058583	  0.180700	 -0.031108	
0.133065	  0.074008	  0.315074	  0.020114	
0.166331	  0.084971	  0.406493	  0.052464	
0.199597	  0.092734	  0.462592	  0.070272	
0.232863	  0.097703	  0.492121	  0.077861	
0.266129	  0.099811	  0.502086	  0.078782	
0.299395	  0.100009	  0.499260	  0.075710	
0.332661	  0.099320	  0.490303	  0.070705	
0.365927	  0.098219	  0.479980	  0.065205	
0.399194	  0.097525	  0.470101	  0.060039	
0.43246	  0.097985	  0.461708	  0.055602	
0.465726	  0.099053	  0.455676	  0.052040	
0.498992	  0.099697	  0.451503	  0.049479	
0.532258	  0.099435	  0.448820	  0.047984	
0.565524	  0.097915	  0.448649	  0.047419	
0.59879	  0.096255	  0.451345	  0.047544	
0.632056	  0.096081	  0.455164	  0.048035	
0.665323	  0.097690	  0.457473	  0.048532	
0.698589	  0.099879	  0.458464	  0.048894	
0.731855	  0.101060	  0.459374	  0.049231	
0.765121	  0.100778	  0.459231	  0.049674	
0.798387	  0.098553	  0.454361	  0.050197	
0.831653	  0.094617	  0.445458	  0.050644	
0.864919	  0.090500	  0.437050	  0.051090	
0.898185	  0.087007	  0.433963	  0.051603	
0.931452	  0.084070	  0.439135	  0.052291	
0.964718	  0.081539	  0.452362	  0.053127	
0.997984	  0.079376	  0.470379	  0.053909	
1.03125	  0.077632	  0.487319	  0.054361	
1.06452	  0.075878	  0.497799	  0.054380	
1.09778	  0.074065	  0.503689	  0.054072	
1.13105	  0.072323	  0.507759	  0.053669	
1.16431	  0.070559	  0.510051	  0.053322	
1.19758	  0.068851	  0.507494	  0.053005	
1.23085	  0.068018	  0.497927	  0.052517	
1.26411	  0.068517	  0.481171	  0.051694	
1.29738	  0.070163	  0.461100	  0.050540	
1.33065	  0.072071	  0.443565	  0.049232	
1.36391	  0.073260	  0.433491	  0.048045	
1.39718	  0.073416	  0.431631	  0.047197	
1.43044	  0.072733	  0.435580	  0.046780	
1.46371	  0.072134	  0.443072	  0.046741	
1.49698	  0.072283	  0.452518	  0.046916	
1.53024	  0.073358	  0.462661	  0.047246	
1.56351	  0.075058	  0.472580	  0.047669	
1.59677	  0.076562	  0.479260	  0.048040	
1.63004	  0.076964	  0.480387	  0.048250	
1.66331	  0.076260	  0.477521	  0.048224	
1.69657	  0.075237	  0.472904	  0.047875	
1.72984	  0.074512	  0.470122	  0.047300	
1.7631	  0.074457	  0.472234	  0.046622	
1.79637	  0.075028	  0.478573	  0.045957	
1.82964	  0.075741	  0.486916	  0.045450	
1.8629	  0.075894	  0.495992	  0.045195	
1.89617	  0.075425	  0.505707	  0.045319	
1.92944	  0.074398	  0.517379	  0.045833	
1.9627	  0.073040	  0.530251	  0.046721	
1.99597	  0.072292	  0.543247	  0.047976	
2.02923	  0.072666	  0.556838	  0.049723	
2.0625	  0.073872	  0.569701	  0.051847	
2.09577	  0.074953	  0.577260	  0.053848	
2.12903	  0.075423	  0.575642	  0.055134	
2.1623	  0.075662	  0.566508	  0.055402	
2.19556	  0.076163	  0.550352	  0.054715	
2.22883	  0.077015	  0.527586	  0.053435	
2.2621	  0.078310	  0.501303	  0.051944	
2.29536	  0.079554	  0.475485	  0.050522	
2.32863	  0.080404	  0.454754	  0.049261	
2.3619	  0.081286	  0.441381	  0.048193	
2.39516	  0.082117	  0.434217	  0.047366	
2.42843	  0.082577	  0.430718	  0.046738	
2.46169	  0.082224	  0.430251	  0.046258	
2.49496	  0.080918	  0.432208	  0.045911	
2.52823	  0.078821	  0.434676	  0.045561	
2.56149	  0.076560	  0.436936	  0.045141	
2.59476	  0.074577	  0.437794	  0.044753	
2.62802	  0.072865	  0.436129	  0.044535	
2.66129	  0.071619	  0.432020	  0.044759	
2.69456	  0.070794	  0.426599	  0.045588	
2.72782	  0.070511	  0.421654	  0.046998	
2.76109	  0.070634	  0.418414	  0.048810	
2.79435	  0.071236	  0.417230	  0.050715	
2.82762	  0.072304	  0.419142	  0.052231	
2.86089	  0.073980	  0.425438	  0.053010	
2.89415	  0.076309	  0.436581	  0.052977	
2.92742	  0.078907	  0.450741	  0.052236	
2.96069	  0.080484	  0.464568	  0.050969	
2.99395	  0.080423	  0.475886	  0.049490	
3.02722	  0.079557	  0.485446	  0.048151	
3.06048	  0.078709	  0.493025	  0.047127	
3.09375	  0.078404	  0.497000	  0.046416	
3.12702	  0.078628	  0.497403	  0.045930	
3.16028	  0.079239	  0.496481	  0.045668	
3.19355	  0.079784	  0.495411	  0.045646	
3.22681	  0.078941	  0.493197	  0.045845	
3.26008	  0.076452	  0.489795	  0.046241	
3.29335	  0.073215	  0.486553	  0.046807	
3.32661	  0.070090	  0.485709	  0.047519	
3.35988	  0.067738	  0.486305	  0.048368	
3.39315	  0.066460	  0.486843	  0.049252	
3.42641	  0.066005	  0.487561	  0.049891	
3.45968	  0.065663	  0.489621	  0.050085	
3.49294	  0.065814	  0.491451	  0.049912	
3.52621	  0.066833	  0.490970	  0.049468	
3.55948	  0.068451	  0.487688	  0.048880	
3.59274	  0.070472	  0.482209	  0.048234	
3.62601	  0.072865	  0.474950	  0.047596	
3.65927	  0.074977	  0.468128	  0.047028	
3.69254	  0.075700	  0.463359	  0.046568	
3.72581	  0.074722	  0.459917	  0.046223	
3.75907	  0.072633	  0.455430	  0.045946	
3.79234	  0.070115	  0.450269	  0.045784	
3.8256	  0.068290	  0.447430	  0.045804	
3.85887	  0.067971	  0.448733	  0.046004	
3.89214	  0.068971	  0.451820	  0.046196	
3.9254	  0.070236	  0.451848	  0.046227	
3.95867	  0.070875	  0.447984	  0.046031	
3.99194	  0.071048	  0.443652	  0.045691	
4.0252	  0.070922	  0.441462	  0.045297	
4.05847	  0.070279	  0.442566	  0.044870	
4.09173	  0.069628	  0.447831	  0.044482	
4.125	  0.069536	  0.455821	  0.044139	
4.15827	  0.070143	  0.464024	  0.043788	
4.19153	  0.071260	  0.470833	  0.043445	
4.2248	  0.073142	  0.475160	  0.043216	
4.25806	  0.075291	  0.477117	  0.043266	
4.29133	  0.076948	  0.477125	  0.043663	
4.3246	  0.078076	  0.475126	  0.044356	
4.35786	  0.078987	  0.471940	  0.045104	
4.39113	  0.080059	  0.468067	  0.045780	
4.4244	  0.081208	  0.465180	  0.046328	
4.45766	  0.081994	  0.466216	  0.046706	
4.49093	  0.081895	  0.473893	  0.047052	
4.52419	  0.080423	  0.487998	  0.047495	
4.55746	  0.078113	  0.502857	  0.048037	
4.59073	  0.075874	  0.514478	  0.048698	
4.62399	  0.074173	  0.523217	  0.049477	
4.65726	  0.073113	  0.529086	  0.050283	
4.69052	  0.073146	  0.532182	  0.050986	
